<?xml version="1.0" encoding="UTF-8"?>
<svg id="Capa_2" data-name="Capa 2" xmlns="http://www.w3.org/2000/svg" viewBox="0 0 45.37 53.34">
  <defs>
    <style>
      .cls-1 {
        fill: #89c3d2;
      }
    </style>
  </defs>
  <g id="Capa_1-2" data-name="Capa 1">
    <path class="cls-1" d="m42.68,33.33c-1.31-.16-2.51.77-2.67,2.09-.02.19-.02.39,0,.58,0,1.79-2.67,1.79-2.67,0v-6.13l4.53-1.33c1.92-.91,3.23-2.72,3.47-4.8C45.35,9.33,35.22,0,22.68,0S.02,9.33.02,23.73c.16,2.13,1.49,4,3.47,4.8l4.53,1.33v6.13c0,.74-.6,1.33-1.33,1.33s-1.33-.6-1.33-1.33c.16-1.31-.77-2.51-2.09-2.67-.19-.02-.39-.02-.58,0-1.31-.16-2.51.77-2.67,2.09-.02.19-.02.39,0,.58-.16,3.52,2.57,6.51,6.09,6.67.19,0,.39,0,.58,0,3.76.16,6.83-2.91,6.67-6.67v-4.8h2.67v15.2c0,1.79-2.67,1.79-2.67,0,.16-1.31-.77-2.51-2.09-2.67-.19-.02-.39-.02-.58,0-1.31-.16-2.51.77-2.67,2.09-.02.19-.02.39,0,.58-.3,3.52,2.32,6.62,5.84,6.92.28.02.55.03.83.02,3.76.16,6.83-2.91,6.67-6.67v-14.67h2.67v14.67c-.16,3.52,2.57,6.51,6.09,6.67.19,0,.39,0,.58,0,3.76.16,6.83-2.91,6.67-6.67,0-3.55-5.33-3.55-5.33,0,0,1.79-2.67,1.79-2.67,0v-15.2h2.67v4.8c0,3.63,3.01,6.56,6.67,6.4,3.76.16,6.83-2.91,6.67-6.67.16-1.31-.77-2.51-2.09-2.67-.19-.02-.39-.02-.58,0M18.95,7.2c-4.02.88-7.5,3.39-9.6,6.93-.45.53-1.33.72-1.87.27-.58-.45-.7-1.27-.27-1.87,2.56-4.02,6.57-6.88,11.2-8,.72-.05,1.36.4,1.6,1.07.16.72-.32,1.47-1.07,1.6"/>
  </g>
</svg>