<?xml version="1.0" encoding="UTF-8"?>
<svg id="Capa_1" data-name="Capa 1" xmlns="http://www.w3.org/2000/svg" viewBox="0 0 45 53">
  <defs>
    <style>
      .cls-1 {
        fill: #e9dbb9;
      }
    </style>
  </defs>
  <path class="cls-1" d="m42.34,33.12c-1.3-.16-2.49.77-2.64,2.07-.02.19-.02.38,0,.58,0,1.78-2.64,1.78-2.64,0v-6.09l4.5-1.32c1.9-.9,3.2-2.7,3.44-4.77C44.98,9.27,34.93,0,22.5,0S.02,9.27.02,23.58c.16,2.12,1.48,3.97,3.44,4.77l4.5,1.32v6.09c0,.73-.59,1.32-1.32,1.32s-1.32-.59-1.32-1.32c.16-1.3-.77-2.49-2.07-2.65-.19-.02-.38-.02-.57,0-1.3-.16-2.49.77-2.64,2.07-.02.19-.02.38,0,.58-.16,3.5,2.55,6.47,6.04,6.62.19,0,.38,0,.57,0,3.73.16,6.77-2.89,6.61-6.62v-4.77h2.64v15.1c0,1.78-2.64,1.78-2.64,0,.16-1.3-.77-2.49-2.07-2.65-.19-.02-.38-.02-.57,0-1.3-.16-2.49.77-2.64,2.07-.02.19-.02.38,0,.58-.3,3.5,2.3,6.58,5.79,6.87.27.02.55.03.82.02,3.73.16,6.77-2.89,6.61-6.62v-14.57h2.64v14.57c-.16,3.5,2.55,6.47,6.04,6.62.19,0,.38,0,.57,0,3.73.16,6.77-2.89,6.61-6.62,0-3.52-5.29-3.52-5.29,0,0,1.78-2.64,1.78-2.64,0v-15.1h2.64v4.77c0,3.6,2.99,6.52,6.61,6.36,3.73.16,6.77-2.89,6.61-6.62.16-1.3-.77-2.49-2.07-2.65-.19-.02-.38-.02-.57,0M18.8,7.15c-3.99.87-7.44,3.37-9.52,6.89-.45.53-1.32.72-1.85.26-.58-.44-.69-1.27-.26-1.85,2.54-3.99,6.52-6.84,11.11-7.95.71-.05,1.35.4,1.59,1.06.16.72-.32,1.46-1.06,1.59"/>
</svg>