<svg id="Capa_1" data-name="Capa 1" xmlns="http://www.w3.org/2000/svg" viewBox="0 0 227.6 50.4"><defs><style>.cls-3{fill:#e9dbb9}</style></defs><text transform="translate(2.1 36.3)" style="font-family:Chicle-Regular,Chicle;font-size:48px;fill:#e9dbb9"><tspan x="0" y="0" style="letter-spacing:0">A</tspan><tspan x="24.3" y="0" xml:space="preserve">guas   </tspan><tspan x="130.1" y="0" style="letter-spacing:.07em">V</tspan><tspan x="150.2" y="0">i</tspan><tspan x="160.6" y="0" style="letter-spacing:0">v</tspan><tspan x="179.3" y="0" style="letter-spacing:0">as</tspan></text><path class="cls-3" d="M104.2 23.8c-.5-.9-.5-2-.2-2.9s1-1.7 1.5-2.5c1-1.3 2-2.6 3.2-3.5.9-.7 1.8-1.1 2.8-1.5 4-1.7 9-2.2 12.9-.2l1.8 1.2c1.5 1 3 2.2 4 3.7s2 3.4 1.8 5.2l-.1.7c-.3.7-1.2.8-1.9.8-1.1-.1-2.2-.5-3.3-.8a31 31 0 0 0-5.8-.8c-3-.3-6.1-.5-9.1 0-2 .4-3.9 1.2-5.9 1.2-.5 0-1.1 0-1.5-.4"/><path class="cls-3" d="M104.9 23.4c-1-1.9.8-4 1.8-5.3a11.3 11.3 0 0 1 5-3.9 15 15 0 0 1 11.7-.5 18 18 0 0 1 5.2 3.7 8.3 8.3 0 0 1 2.7 5.4c0 .3 0 .8-.3 1s-.6.2-1 .2c-1-.1-2-.5-3.1-.8-2.3-.6-4.7-.7-7-.9-2.7-.2-5.4-.3-8 .2l-3.7.8c-.6.2-1.2.3-1.9.3-.4 0-1 .2-1.3-.1-.8-.8-1.9.4-1.1 1 .9 1 2.2.8 3.4.6l3.6-.8c2.5-.6 5-.6 7.6-.5s5.1.3 7.6.9l3.7.9c1 0 2.2-.1 2.7-1 .3-.6.3-1.3.3-2s-.1-1.2-.3-1.8a9.8 9.8 0 0 0-1.6-3.1c-1.4-2-3.3-3.5-5.4-4.7-4-2.5-9-2.3-13.3-.7-1.1.4-2.2.8-3.3 1.5-1 .7-1.8 1.5-2.6 2.4L104 19c-.7 1-1.1 2.2-1 3.4 0 .6.1 1.2.4 1.7.5 1 1.9.1 1.4-.8Z"/><path d="m108.7 26.5 1 1 2 1.5 2.4.9 2.8.5h2.4l2.2-.5 2-.8 2.6-1.8.7-.8v-.1l-1.3-.3-2.1-.4-3-.3h-7l-2.3.5-2.4.5v.1Z" style="fill:#e9dbb9;stroke:#e9dbb9;stroke-miterlimit:10"/><path d="M116.3 12.6c-1-.3-2.3.2-2.9 1.2-.2.4-.2 1-.5 1.1-.5.2-1 .1-1.5.1-.7 0-1.4.1-1.9.5s-.7 1-.8 1.6c-.3 1-1.2 1.7-2 2.1-.5.2-.6.8-.4 1.1.3.4.7.5 1.1.3 1-.5 1.8-1.1 2.4-2l.3-.8.2-.8c.2-.4.8-.4 1.2-.4 1 0 2.3 0 3-1 .2-.5.2-1 .5-1.3.3-.2.6-.3 1-.2.9.3 1.3-1.2.3-1.5Z" style="fill:#efeae1" id="Capa_5" data-name="Capa 5"/><g id="Capa_6" data-name="Capa 6"><path class="cls-3" d="M112.4 28.6c0 1-.9 2-1.8 1.6-.5-.2-.9-.7-1.2-1-.4-.5-.8-1-1.3-1.2-1-.5-2.3-.2-2.8 1-.3.5-.3 1.1-.3 1.7s.1 1 .6 1.4c.3.2.7 0 .8-.2.2-.3 0-.6-.2-.8v-1.3c.1-.4.3-.8.8-.9 1 0 1.6 1.3 2.3 1.9.9.7 2 .9 2.9.3.8-.5 1.4-1.5 1.4-2.5 0-.7-1.1-.7-1.1 0ZM121.7 28.1c.2 1 .5 2 1.3 2.8s2.4.9 3.1 0c.3-.5.5-1 .9-1.3.3-.4.8-.5 1.3-.5.5.1.8.5 1 1V31.4c-.6.6.3 1.5.8.9.7-.9.5-2.6-.1-3.4-.8-1-2.1-1.2-3.2-.7-.5.3-1 .8-1.3 1.3l-.4.7h-.7c-1.1-.1-1.3-1.5-1.5-2.4-.2-.8-1.3-.5-1.2.3ZM120.5 29.7c.2.3.6.7.3 1l-1 1.1c-.5.9-.2 2 .5 2.6.6.5 1.6 1 .9 2-.6.6-1.4 1-1.5 1.9 0 .3.3.6.6.6.4 0 .6-.3.6-.6s.5-.6.7-.8c.4-.3.7-.6.9-1 .4-1.2-.2-2-1-2.7-.4-.3-.8-.6-.8-1s.6-.8.8-1.1c.9-1 .5-2-.2-2.9-.5-.6-1.3.3-.8.9ZM117.3 29.7c0 .3.3.8.1 1.2s-.5.6-.8.8c-.6.7-.7 1.5-.2 2.3l.8 1c.3.1.7.3.8.7.3.7-.7 1.5-1.2 1.9-.6.5.3 1.4.8.8.7-.6 1.5-1.3 1.6-2.3 0-.5 0-1-.3-1.3l-1-1c-.3-.1-.7-.5-.7-.8s.5-.7.7-.9c.4-.3.6-.7.7-1.2.1-.5 0-1-.2-1.5-.3-.8-1.4-.4-1.2.3Z"/><path class="cls-3" d="M113.7 29.4c.2.3.5.8.5 1.2s-.5.6-.7 1c-.6.6-.8 1.6-.3 2.4.4.6 1 1 1.5 1.6.6.7-.6 1.6-1 2-.7.5.2 1.3.7.8.8-.6 1.7-1.4 1.7-2.6-.1-1-1-1.5-1.6-2-.2-.3-.5-.6-.4-1 .1-.5.6-.8.8-1 .8-1 .4-2.1-.2-3-.4-.7-1.4 0-1 .6Z"/></g></svg>