<?xml version="1.0" encoding="UTF-8"?>
<svg id="Capa_3" data-name="Capa 3" xmlns="http://www.w3.org/2000/svg" viewBox="0 0 134.5 99.16">
  <defs>
    <style>
      .cls-1, .cls-2 {
        fill: #89c4d3;
      }

      .cls-3 {
        fill: #c6e1e5;
      }

      .cls-4 {
        fill: #8ac5d3;
      }

      .cls-2 {
        stroke: #89c4d3;
        stroke-miterlimit: 10;
      }
    </style>
  </defs>
  <g>
    <path class="cls-4" d="m23.41,46.41c-1.57-2.66-1.47-6.04-.45-8.95s2.89-5.44,4.75-7.9c3.03-3.98,6.22-7.94,10.27-10.87,2.68-1.93,5.68-3.38,8.74-4.62,13.23-5.36,28.79-6.88,41.51-.41,2.02,1.03,3.95,2.24,5.83,3.51,4.86,3.26,9.55,6.93,13.08,11.6s5.85,10.45,5.5,16.3c-.04.71-.13,1.43-.43,2.07-.97,2.03-3.66,2.5-5.9,2.32-3.68-.3-7.19-1.59-10.76-2.5-6.03-1.54-12.28-2.01-18.48-2.47-9.76-.73-19.65-1.45-29.27.32-6.31,1.16-12.46,3.38-18.87,3.63-1.72.07-3.64-.09-4.8-1.36"/>
    <path class="cls-1" d="m25.57,45.15c-3.21-5.76,2.66-12.34,6.03-16.54,2.13-2.66,4.43-5.29,7.14-7.38s5.62-3.52,8.66-4.75c11.76-4.76,25.71-6.71,37.69-1.56,3.25,1.4,6.25,3.36,9.14,5.37,2.64,1.84,5.18,3.82,7.48,6.08,4.57,4.49,8.3,10.4,8.47,16.98.03,1.07.21,2.62-.68,3.17s-2.13.51-3.18.43c-3.45-.25-6.77-1.56-10.1-2.41-7.34-1.87-14.99-2.27-22.51-2.8-8.55-.6-17.14-.93-25.63.49-4.03.67-7.96,1.82-11.95,2.69-1.92.42-3.84.78-5.8.94-1.31.11-3.4.48-4.44-.55-2.3-2.26-5.83,1.28-3.54,3.54,2.89,2.84,7.32,2.18,10.96,1.66,3.95-.57,7.8-1.66,11.69-2.56,8.02-1.85,16.17-1.94,24.36-1.48s16.43.78,24.35,2.62c3.98.92,7.82,2.34,11.9,2.8,3.11.35,6.87-.27,8.6-3.21,1-1.69,1.03-3.84.93-5.75s-.41-3.85-.94-5.69c-1.03-3.58-2.8-6.95-5.05-9.9-4.57-6-10.84-10.71-17.3-14.52-12.93-7.65-28.82-7.17-42.67-2.34-3.65,1.27-7.31,2.78-10.62,4.81s-6,4.51-8.47,7.32-4.94,5.92-7.02,9.1-3.56,6.75-3.39,10.53c.09,1.93.59,3.76,1.53,5.44,1.57,2.81,5.89.29,4.32-2.52h0Z"/>
  </g>
  <path class="cls-2" d="m37.83,54.94l3.27,3.27s.02.02.03.03l6.61,4.49s.03.02.05.02l7.32,2.6s.02,0,.03,0l9.23,1.66s.03,0,.04,0h7.56s.03,0,.05,0l7.09-1.65s.02,0,.03,0l6.38-2.36s.03-.01.04-.02l8.27-5.43s.03-.03.05-.04l2.13-2.56c.1-.12.04-.31-.12-.35l-3.93-.87-6.88-1.19s-.01,0-.02,0l-9.72-.95s-.01,0-.02,0h-22.07s-.03,0-.04,0l-7.58,1.42-7.69,1.58c-.17.03-.23.24-.11.36Z"/>
  <g id="Capa_5" data-name="Capa 5">
    <path class="cls-3" d="m62.41,11.61c-3.53-1-7.56.59-9.36,3.83-.61,1.1-.6,2.85-1.8,3.43-1.44.7-3.25.34-4.78.32-2.11-.03-4.28.26-6,1.57s-2.15,3.1-2.69,5.05c-.88,3.17-3.73,5.1-6.56,6.43-1.22.58-1.54,2.33-.9,3.42.73,1.25,2.19,1.47,3.42.9,3.03-1.43,5.88-3.54,7.61-6.46.45-.75.81-1.58,1.08-2.41.26-.77.33-1.68.68-2.42.62-1.32,2.6-1.1,3.8-1.06,3.47.11,7.47-.07,9.42-3.47.73-1.27.66-2.86,1.89-3.78.85-.64,1.87-.79,2.85-.52,3.1.88,4.43-3.94,1.33-4.82h0Z"/>
  </g>
  <g id="Capa_6" data-name="Capa 6">
    <path class="cls-1" d="m49.88,61.51c-.18,2.81-3,6.01-6.03,4.84-1.57-.61-2.73-2.02-3.83-3.22-1.22-1.34-2.51-2.7-4.16-3.52-3.41-1.69-7.35-.73-8.96,2.87-.77,1.72-.89,3.64-.87,5.51s.42,3.29,1.92,4.41c.81.61,2.09.13,2.57-.67.56-.96.14-1.96-.67-2.57-.05-.04-.06-1.15-.06-1.39,0-.92,0-1.85.2-2.75.28-1.23.97-2.48,2.36-2.54,3.17-.12,5.25,3.91,7.4,5.66,2.75,2.24,6.18,2.93,9.34,1.04,2.73-1.62,4.34-4.55,4.54-7.68.15-2.41-3.6-2.4-3.75,0h0Z"/>
    <path class="cls-1" d="m79.62,59.86c.64,3.08,1.56,6.48,4.1,8.56s7.74,2.92,9.98-.11c.99-1.34,1.52-2.83,2.83-3.94,1.12-.96,2.58-1.52,4.07-1.3,1.59.23,2.66,1.38,3.1,2.87.24.79.34,1.6.34,2.43,0,.55.11,1.45-.29,1.9-1.59,1.8,1.05,4.47,2.65,2.65,2.39-2.71,1.62-7.93-.41-10.66-2.34-3.15-6.66-3.71-10.05-1.99-1.74.88-3.16,2.35-4.2,3.98-.38.59-.66,1.63-1.23,2.05-.48.36-1.69.22-2.27.14-3.58-.49-4.41-4.65-5.02-7.58-.49-2.36-4.11-1.36-3.62,1h0Z"/>
    <path class="cls-1" d="m75.64,64.71c.78.91,1.82,2.22.94,3.36-.94,1.21-2.29,1.97-3.09,3.32-1.62,2.75-.67,5.97,1.64,7.96,1.81,1.55,5.02,3.42,2.66,6.01-1.84,2.01-4.21,3.21-4.58,6.16-.13,1.01.95,1.88,1.88,1.88,1.12,0,1.75-.87,1.88-1.88.11-.85,1.65-1.83,2.23-2.34,1.13-.99,2.17-2.03,2.74-3.45,1.38-3.39-.59-6.26-3.2-8.28-1.02-.79-2.42-1.72-2.33-3.19s1.7-2.36,2.6-3.31c2.74-2.87,1.6-6.2-.71-8.9-1.57-1.84-4.21.82-2.65,2.65h0Z"/>
    <path class="cls-1" d="m65.31,64.8c.39,1.07,1.06,2.5.58,3.64s-1.8,1.84-2.59,2.66c-1.92,1.98-2.3,4.61-.86,7.01.7,1.17,1.71,2.13,2.79,2.95.86.65,2.23,1.18,2.64,2.26.89,2.35-2.55,4.8-4,6.07-1.82,1.6.84,4.24,2.65,2.65,2.23-1.96,4.77-4.19,5.16-7.31.18-1.47-.18-2.91-1.07-4.09s-2.26-1.84-3.43-2.79c-.78-.63-2.02-1.76-1.92-2.9s1.48-1.92,2.22-2.61c1.08-1.01,1.95-2.18,2.21-3.66.29-1.68-.19-3.31-.76-4.87-.82-2.25-4.44-1.28-3.62,1h0Z"/>
    <path class="cls-1" d="m54.02,63.78c.66,1.06,1.65,2.42,1.57,3.74s-1.67,2.05-2.44,2.94c-1.84,2.14-2.31,5.16-.79,7.62,1.26,2.04,3.46,3.1,4.89,4.95,1.84,2.38-1.97,5-3.55,6.32-1.85,1.55.81,4.19,2.65,2.65,2.42-2.02,5.45-4.61,5.15-8.11-.26-3.02-2.91-4.65-4.9-6.55-.85-.82-1.65-1.77-1.38-3.03.31-1.45,1.79-2.2,2.69-3.24,2.5-2.88,1.09-6.33-.67-9.17-1.27-2.05-4.52-.16-3.24,1.89h0Z"/>
  </g>
</svg>